<svg xmlns="http://www.w3.org/2000/svg" xmlns:xlink="http://www.w3.org/1999/xlink" width="902.567" height="748.955" viewBox="0 0 902.567 748.955">
  <defs>
    <linearGradient id="linear-gradient" x1="0.505" y1="1.007" x2="0.505" gradientUnits="objectBoundingBox">
      <stop offset="0" stop-color="gray" stop-opacity="0.251"/>
      <stop offset="0.54" stop-color="gray" stop-opacity="0.122"/>
      <stop offset="1" stop-color="gray" stop-opacity="0.102"/>
    </linearGradient>
  </defs>
  <g id="Group_22" data-name="Group 22" transform="translate(-282 -122.601)">
    <g id="Group_2" data-name="Group 2" transform="translate(556.248 122.601)">
      <rect id="Rectangle_76" data-name="Rectangle 76" width="10.994" height="90.604" rx="2.29" transform="translate(361.847 169.558)" fill="#3f3d56"/>
      <rect id="Rectangle_80" data-name="Rectangle 80" width="367.778" height="747.455" rx="38.99" transform="translate(0)" fill="#3f3d56"/>
      <path id="Path_176" data-name="Path 176" d="M757.9,199H715.712v5.075a24.047,24.047,0,0,1-24.06,24.047H557.483a24.047,24.047,0,0,1-24.06-24.047V199h-39.5a29.209,29.209,0,0,0-29.209,29.209v650.15a29.209,29.209,0,0,0,29.209,29.209H757.9a29.209,29.209,0,0,0,29.209-29.209v-650.1A29.209,29.209,0,0,0,757.9,199Z" transform="translate(-441.311 -179.531)" fill="#fff"/>
      <rect id="Rectangle_81" data-name="Rectangle 81" width="51.357" height="10.423" rx="3.87" transform="translate(148.414 22.322)" fill="#e6e8ec"/>
      <circle id="Ellipse_5" data-name="Ellipse 5" cx="5.919" cy="5.919" r="5.919" transform="translate(207.539 21.615)" fill="#e6e8ec"/>
      <circle id="Ellipse_11" data-name="Ellipse 11" cx="69.573" cy="69.573" r="69.573" transform="translate(116.562 313.331)" fill="#fff"/>
      <path id="Path_222" data-name="Path 222" d="M706.184,502.6A92.987,92.987,0,1,1,613.2,409.61,92.987,92.987,0,0,1,706.184,502.6ZM602.451,551.82l68.977-68.977a5.993,5.993,0,0,0,0-8.487l-8.487-8.425a5.981,5.981,0,0,0-8.475,0l-56.258,56.259-26.268-26.33a6.018,6.018,0,0,0-8.487,0l-8.487,8.537a6.018,6.018,0,0,0,0,8.487l39,38.986a5.993,5.993,0,0,0,8.487,0Z" transform="translate(-428.541 -129.411)" fill="#44d2aa"/>
    </g>
    
    <path id="Path_178" data-name="Path 178" d="M763.1,130.7s-42.522-2.563-37.554,27.27c0,0-1,5.271,3.782,7.665,0,0,.078-2.238,4.375-1.466a19.593,19.593,0,0,0,4.621.224,9.579,9.579,0,0,0,5.651-2.328h0s11.973-4.946,16.628-24.506c0,0,3.435-4.263,3.3-5.36l-7.184,3.066s2.451,5.181.526,9.489c0,0-.235-9.3-1.611-9.086-.28,0-3.738,1.8-3.738,1.8s4.23,9.03,1.041,15.588c0,0,1.208-11.123-2.361-14.939l-5.058,3s4.935,9.321,1.589,16.931c0,0,.862-11.671-2.652-16.214l-4.577,3.581s4.633,9.187,1.813,15.5c0,0-.38-13.585-2.809-14.614,0,0-4.006,3.536-4.622,4.991,0,0,3.178,6.714,1.209,10.194,0,0-1.209-9.053-2.238-9.1,0,0-3.995,6-4.409,10.071a21.842,21.842,0,0,1,3.447-10.675,12.04,12.04,0,0,0-6.121,3.167s.627-4.241,7.106-4.61c0,0,3.357-4.554,4.185-4.834,0,0-6.445-.537-10.351,1.2,0,0,3.435-3.995,11.526-2.182l4.476-3.693S734.6,139.7,731,140.946c0,0,4.14-3.536,13.305-.962l4.924-2.943s-7.24-1.555-11.548-1c0,0,4.554-2.451,12.992.2l3.525-1.578s-5.3-1.041-6.86-1.209-1.634-.593-1.634-.593a18.34,18.34,0,0,1,9.959,1.119S763.231,131.166,763.1,130.7Z" transform="translate(248.313 7.472)" fill="#3f3d56"/>
    <path id="Path_224" data-name="Path 224" d="M763.1,130.7s-42.522-2.563-37.554,27.27c0,0-1,5.271,3.782,7.665,0,0,.078-2.238,4.375-1.466a19.593,19.593,0,0,0,4.621.224,9.579,9.579,0,0,0,5.651-2.328h0s11.973-4.946,16.628-24.506c0,0,3.435-4.263,3.3-5.36l-7.184,3.066s2.451,5.181.526,9.489c0,0-.235-9.3-1.611-9.086-.28,0-3.738,1.8-3.738,1.8s4.23,9.03,1.041,15.588c0,0,1.208-11.123-2.361-14.939l-5.058,3s4.935,9.321,1.589,16.931c0,0,.862-11.671-2.652-16.214l-4.577,3.581s4.633,9.187,1.813,15.5c0,0-.38-13.585-2.809-14.614,0,0-4.006,3.536-4.622,4.991,0,0,3.178,6.714,1.209,10.194,0,0-1.209-9.053-2.238-9.1,0,0-3.995,6-4.409,10.071a21.842,21.842,0,0,1,3.447-10.675,12.04,12.04,0,0,0-6.121,3.167s.627-4.241,7.106-4.61c0,0,3.357-4.554,4.185-4.834,0,0-6.445-.537-10.351,1.2,0,0,3.435-3.995,11.526-2.182l4.476-3.693S734.6,139.7,731,140.946c0,0,4.14-3.536,13.305-.962l4.924-2.943s-7.24-1.555-11.548-1c0,0,4.554-2.451,12.992.2l3.525-1.578s-5.3-1.041-6.86-1.209-1.634-.593-1.634-.593a18.34,18.34,0,0,1,9.959,1.119S763.231,131.166,763.1,130.7Z" transform="translate(-407.428 462.909)" fill="#3f3d56"/>
  </g>
</svg>
